<svg width="360" height="360" viewBox="0 0 360 360" fill="none" xmlns="http://www.w3.org/2000/svg">
<mask id="path-1-outside-1_3_52" maskUnits="userSpaceOnUse" x="0.394901" y="0.394881" width="359.21" height="359.21" fill="black">
<rect fill="white" x="0.394901" y="0.394881" width="359.21" height="359.21"/>
<path fill-rule="evenodd" clip-rule="evenodd" d="M180 3.22331L3.22333 180L180 356.777L356.777 180L180 3.22331ZM180 24.4365L24.4365 180L180 335.563L335.564 180L180 24.4365Z"/>
</mask>
<path fill-rule="evenodd" clip-rule="evenodd" d="M180 3.22331L3.22333 180L180 356.777L356.777 180L180 3.22331ZM180 24.4365L24.4365 180L180 335.563L335.564 180L180 24.4365Z" fill="#3DDBF0"/>
<path d="M3.22333 180L1.80911 178.586L0.394901 180L1.80911 181.414L3.22333 180ZM180 3.22331L181.414 1.80909L180 0.394881L178.586 1.80909L180 3.22331ZM180 356.777L178.586 358.191L180 359.605L181.414 358.191L180 356.777ZM356.777 180L358.191 181.414L359.605 180L358.191 178.586L356.777 180ZM24.4365 180L23.0223 178.586L21.6081 180L23.0223 181.414L24.4365 180ZM180 24.4365L181.414 23.0223L180 21.6081L178.586 23.0223L180 24.4365ZM180 335.563L178.586 336.978L180 338.392L181.414 336.978L180 335.563ZM335.564 180L336.978 181.414L338.392 180L336.978 178.586L335.564 180ZM4.63754 181.414L181.414 4.63752L178.586 1.80909L1.80911 178.586L4.63754 181.414ZM181.414 355.362L4.63754 178.586L1.80911 181.414L178.586 358.191L181.414 355.362ZM355.362 178.586L178.586 355.362L181.414 358.191L358.191 181.414L355.362 178.586ZM178.586 4.63752L355.362 181.414L358.191 178.586L181.414 1.80909L178.586 4.63752ZM25.8507 181.414L181.414 25.8507L178.586 23.0223L23.0223 178.586L25.8507 181.414ZM181.414 334.149L25.8507 178.586L23.0223 181.414L178.586 336.978L181.414 334.149ZM334.149 178.586L178.586 334.149L181.414 336.978L336.978 181.414L334.149 178.586ZM178.586 25.8507L334.149 181.414L336.978 178.586L181.414 23.0223L178.586 25.8507Z" fill="black" mask="url(#path-1-outside-1_3_52)"/>
<mask id="path-3-outside-2_3_52" maskUnits="userSpaceOnUse" x="53" y="53" width="254" height="254" fill="black">
<rect fill="white" x="53" y="53" width="254" height="254"/>
<path fill-rule="evenodd" clip-rule="evenodd" d="M305 55H55V305H305V55ZM290 70H70V290H290V70Z"/>
</mask>
<path fill-rule="evenodd" clip-rule="evenodd" d="M305 55H55V305H305V55ZM290 70H70V290H290V70Z" fill="#3DDBF0"/>
<path d="M55 55V53H53V55H55ZM305 55H307V53H305V55ZM55 305H53V307H55V305ZM305 305V307H307V305H305ZM70 70V68H68V70H70ZM290 70H292V68H290V70ZM70 290H68V292H70V290ZM290 290V292H292V290H290ZM55 57H305V53H55V57ZM57 305V55H53V305H57ZM305 303H55V307H305V303ZM303 55V305H307V55H303ZM70 72H290V68H70V72ZM72 290V70H68V290H72ZM290 288H70V292H290V288ZM288 70V290H292V70H288Z" fill="black" mask="url(#path-3-outside-2_3_52)"/>
<mask id="path-5-outside-3_3_52" maskUnits="userSpaceOnUse" x="131" y="105" width="111" height="150" fill="black">
<rect fill="white" x="131" y="105" width="111" height="150"/>
<path d="M133.649 253V107.545H182.797C194.16 107.545 203.488 109.487 210.779 113.369C218.071 117.205 223.469 122.484 226.973 129.207C230.476 135.931 232.228 143.578 232.228 152.148C232.228 160.718 230.476 168.317 226.973 174.946C223.469 181.575 218.095 186.783 210.85 190.571C203.606 194.312 194.35 196.182 183.081 196.182H143.308V180.273H182.512C190.278 180.273 196.528 179.136 201.262 176.864C206.045 174.591 209.501 171.371 211.632 167.205C213.81 162.991 214.899 157.972 214.899 152.148C214.899 146.324 213.81 141.234 211.632 136.878C209.454 132.522 205.974 129.16 201.191 126.793C196.409 124.378 190.088 123.17 182.228 123.17H151.262V253H133.649ZM202.115 187.659L237.91 253H217.456L182.228 187.659H202.115Z"/>
</mask>
<path d="M133.649 253V107.545H182.797C194.16 107.545 203.488 109.487 210.779 113.369C218.071 117.205 223.469 122.484 226.973 129.207C230.476 135.931 232.228 143.578 232.228 152.148C232.228 160.718 230.476 168.317 226.973 174.946C223.469 181.575 218.095 186.783 210.85 190.571C203.606 194.312 194.35 196.182 183.081 196.182H143.308V180.273H182.512C190.278 180.273 196.528 179.136 201.262 176.864C206.045 174.591 209.501 171.371 211.632 167.205C213.81 162.991 214.899 157.972 214.899 152.148C214.899 146.324 213.81 141.234 211.632 136.878C209.454 132.522 205.974 129.16 201.191 126.793C196.409 124.378 190.088 123.17 182.228 123.17H151.262V253H133.649ZM202.115 187.659L237.91 253H217.456L182.228 187.659H202.115Z" fill="#3DDBF0"/>
<path d="M133.649 253H131.649V255H133.649V253ZM133.649 107.545V105.545H131.649V107.545H133.649ZM210.779 113.369L209.839 115.135L209.848 115.139L210.779 113.369ZM226.973 129.207L225.199 130.132L225.199 130.132L226.973 129.207ZM226.973 174.946L225.204 174.011L225.204 174.011L226.973 174.946ZM210.85 190.571L211.768 192.348L211.777 192.343L210.85 190.571ZM143.308 196.182H141.308V198.182H143.308V196.182ZM143.308 180.273V178.273H141.308V180.273H143.308ZM201.262 176.864L200.404 175.057L200.397 175.061L201.262 176.864ZM211.632 167.205L209.855 166.286L209.851 166.294L211.632 167.205ZM201.191 126.793L200.29 128.578L200.297 128.581L200.304 128.585L201.191 126.793ZM151.262 123.17V121.17H149.262V123.17H151.262ZM151.262 253V255H153.262V253H151.262ZM202.115 187.659L203.869 186.698L203.3 185.659H202.115V187.659ZM237.91 253V255H241.286L239.664 252.039L237.91 253ZM217.456 253L215.695 253.949L216.262 255H217.456V253ZM182.228 187.659V185.659H178.878L180.468 188.608L182.228 187.659ZM135.649 253V107.545H131.649V253H135.649ZM133.649 109.545H182.797V105.545H133.649V109.545ZM182.797 109.545C193.949 109.545 202.925 111.453 209.839 115.135L211.719 111.604C204.05 107.52 194.371 105.545 182.797 105.545V109.545ZM209.848 115.139C216.812 118.802 221.9 123.801 225.199 130.132L228.746 128.283C225.038 121.167 219.33 115.607 211.71 111.599L209.848 115.139ZM225.199 130.132C228.536 136.534 230.228 143.857 230.228 152.148H234.228C234.228 143.298 232.417 135.327 228.746 128.283L225.199 130.132ZM230.228 152.148C230.228 160.439 228.535 167.709 225.204 174.011L228.741 175.881C232.417 168.925 234.228 160.997 234.228 152.148H230.228ZM225.204 174.011C221.907 180.25 216.843 185.181 209.924 188.799L211.777 192.343C219.346 188.386 225.031 182.9 228.741 175.881L225.204 174.011ZM209.933 188.794C203.06 192.343 194.146 194.182 183.081 194.182V198.182C194.553 198.182 204.153 196.28 211.768 192.348L209.933 188.794ZM183.081 194.182H143.308V198.182H183.081V194.182ZM145.308 196.182V180.273H141.308V196.182H145.308ZM143.308 182.273H182.512V178.273H143.308V182.273ZM182.512 182.273C190.446 182.273 197.025 181.116 202.128 178.667L200.397 175.061C196.03 177.157 190.11 178.273 182.512 178.273V182.273ZM202.121 178.67C207.246 176.234 211.055 172.725 213.412 168.115L209.851 166.294C207.947 170.018 204.843 172.947 200.404 175.057L202.121 178.67ZM213.408 168.123C215.763 163.567 216.899 158.219 216.899 152.148H212.899C212.899 157.724 211.857 162.414 209.855 166.286L213.408 168.123ZM216.899 152.148C216.899 146.074 215.762 140.666 213.421 135.983L209.843 137.772C211.857 141.801 212.899 146.574 212.899 152.148H216.899ZM213.421 135.983C211.029 131.2 207.212 127.541 202.079 125L200.304 128.585C204.736 130.779 207.878 133.843 209.843 137.772L213.421 135.983ZM202.093 125.007C196.931 122.401 190.266 121.17 182.228 121.17V125.17C189.91 125.17 195.887 126.355 200.29 128.578L202.093 125.007ZM182.228 121.17H151.262V125.17H182.228V121.17ZM149.262 123.17V253H153.262V123.17H149.262ZM151.262 251H133.649V255H151.262V251ZM200.361 188.62L236.156 253.961L239.664 252.039L203.869 186.698L200.361 188.62ZM237.91 251H217.456V255H237.91V251ZM219.216 252.051L183.989 186.71L180.468 188.608L215.695 253.949L219.216 252.051ZM182.228 189.659H202.115V185.659H182.228V189.659Z" fill="black" mask="url(#path-5-outside-3_3_52)"/>
</svg>
